<?xml version="1.0" standalone="no"?>
<!DOCTYPE svg PUBLIC "-//W3C//DTD SVG 1.1//EN" "http://www.w3.org/Graphics/SVG/1.1/DTD/svg11.dtd" >
<svg xmlns="http://www.w3.org/2000/svg">
<metadata>Generated by IcoMoon</metadata>
<defs>
<font id="icomoon" horiz-adv-x="1024">
<font-face units-per-em="1024" ascent="960" descent="-64" />
<missing-glyph horiz-adv-x="1024" />
<glyph unicode="&#x20;" horiz-adv-x="512" d="" />
<glyph unicode="&#xe900;" glyph-name="right-arrow" horiz-adv-x="1229" d="M655.36 872.96l81.92 87.040 491.52-512-81.92-87.040-491.52 512zM0 386.56v122.88h1095.68v-117.76c0-5.12-1095.68-5.12-1095.68-5.12zM737.28-64l-81.92 87.040 491.52 512 81.92-87.040-491.52-512z" />
<glyph unicode="&#xe901;" glyph-name="pinterest" d="M512.101 960c-282.934 0-512.101-229.167-512.101-512.101s229.167-512.101 512.101-512.101 512.101 229.167 512.101 512.101c-0.201 282.934-229.368 512.101-512.101 512.101zM551.973 309.554c-37.456 2.819-53.163 21.346-82.363 39.268-16.11-84.578-35.845-165.733-94.244-208.022-18.124 127.874 26.38 223.729 47.122 325.827-35.241 59.406 4.229 178.621 78.537 149.22 91.425-36.248-79.141-220.306 35.241-243.464 119.416-23.964 168.351 207.418 94.244 282.733-107.132 108.743-311.731 2.417-286.559-153.046 6.243-38.060 45.31-49.539 15.707-102.098-68.468 15.103-89.008 69.274-86.391 141.366 4.229 118.007 105.924 200.571 208.022 212.050 129.082 14.499 250.11-47.324 266.824-168.754 18.929-137.339-58.198-285.753-196.141-275.080z" />
<glyph unicode="&#xe902;" glyph-name="left-quotation-sign" d="M19.692 229.312c30.057-99.498 91.206-166.866 172.049-189.668 20.729-6.219 41.457-8.291 62.186-8.291 103.644 0 195.887 69.441 223.87 169.976 34.202 123.336-37.312 251.854-160.648 286.057-54.931 15.547-115.045 9.328-165.83-15.547 2.073 7.255 3.109 13.474 5.182 19.692 44.567 160.648 133.7 233.198 181.377 233.198h2.073c9.328 0 18.656 6.219 20.729 15.547l26.947 96.389c2.073 5.182 1.036 11.401-2.073 16.583s-8.291 8.291-13.474 9.328c-10.364 2.073-20.729 3.109-31.093 3.109-130.591-1.036-265.328-141.992-319.223-336.842-27.984-99.498-29.020-209.36-2.073-299.53zM559.676 528.842c-27.984-99.498-29.020-209.36-2.073-299.53 30.057-99.498 91.206-166.866 172.049-189.668 20.729-6.219 41.457-8.291 62.186-8.291 103.644 0 195.887 69.441 223.87 169.976 34.202 123.336-37.312 251.854-160.648 286.057-54.931 15.547-115.045 9.328-165.83-15.547 2.073 7.255 3.109 13.474 5.182 19.692 44.567 160.648 133.7 233.198 181.377 233.198h2.073c9.328 0 18.656 6.219 20.729 15.547l26.947 96.389c2.073 5.182 1.036 11.401-2.073 16.583s-8.291 8.291-13.474 9.328c-10.364 2.073-20.729 3.109-31.093 3.109-130.591-1.036-265.328-141.992-319.223-336.842z" />
<glyph unicode="&#xe903;" glyph-name="right-quotation-sign" d="M1004.308 665.652c-30.057 99.498-91.206 166.866-172.049 189.668-20.729 6.219-41.457 8.291-62.186 8.291-103.644 0-195.887-69.441-223.87-169.976-34.202-123.336 37.312-251.854 160.648-286.057 54.931-15.547 115.045-9.328 165.83 15.547-2.073-7.255-3.109-13.474-5.182-19.692-44.567-160.648-133.7-233.198-181.377-233.198h-2.073c-9.328 0-18.656-6.219-20.729-15.547l-26.947-96.389c-2.073-5.182-1.036-11.401 2.073-16.583s8.291-8.291 13.474-9.328c10.364-2.073 20.729-3.109 31.093-3.109 130.591 0 264.291 140.955 319.223 335.806 29.020 101.571 29.020 210.397 2.073 300.567zM465.36 367.158c27.984 99.498 29.020 209.36 2.073 299.53-30.057 99.498-91.206 166.866-172.049 189.668-20.729 6.219-41.457 8.291-62.186 8.291-103.644 0-195.887-69.441-223.87-169.976-34.202-123.336 37.312-251.854 160.648-286.057 54.931-15.547 115.045-9.328 165.83 15.547-2.073-7.255-3.109-13.474-5.182-19.692-45.603-160.648-133.7-233.198-182.413-233.198h-2.073c-9.328 0-18.656-6.219-20.729-15.547l-26.947-96.389c-2.073-5.182-1.036-11.401 2.073-16.583s8.291-8.291 13.474-9.328c10.364-2.073 20.729-3.109 31.093-3.109 131.628 1.036 265.328 141.992 320.259 336.842z" />
<glyph unicode="&#xe904;" glyph-name="twitter-icon" horiz-adv-x="1261" d="M1261.512 838.875c-46.349-20.599-96.2-34.401-148.522-40.787 53.353 31.929 94.346 82.81 113.709 142.96-50.057-29.663-105.469-51.087-164.384-62.828-47.173 50.469-114.327 81.78-188.691 81.78-142.754 0-258.729-115.769-258.729-258.523 0-20.187 2.266-39.963 6.798-58.915-215.059 10.712-405.604 113.709-533.114 270.265-22.247-38.315-35.019-82.604-35.019-129.983 0-89.814 45.731-168.916 114.945-215.265-42.435 1.442-82.192 12.978-117.211 32.547v-3.296c0-125.245 89.196-229.89 207.437-253.58-21.629-5.768-44.495-9.064-68.184-9.064-16.686 0-32.753 1.648-48.615 4.738 32.959-102.791 128.335-177.567 241.632-179.627-88.372-69.42-200.021-110.619-321.146-110.619-20.805 0-41.405 1.236-61.592 3.502 114.533-73.54 250.284-116.387 396.334-116.387 475.642 0 735.813 394.068 735.813 735.813l-0.824 33.577c50.675 36.255 94.758 81.78 129.365 133.691z" />
<glyph unicode="&#xe905;" glyph-name="dropdown" d="M1016.285 684.362l-51.2 51.2c-7.014 7.014-14.729 10.521-23.847 10.521s-16.833-3.507-23.847-10.521l-403.989-403.989-404.69 403.989c-7.014 7.014-14.729 10.521-23.847 10.521s-16.833-3.507-23.847-10.521l-50.499-51.2c-7.014-7.014-10.521-14.729-10.521-23.847s3.507-16.833 10.521-23.847l479.036-479.036c7.014-7.014 14.729-10.521 23.847-10.521s16.833 3.507 23.847 10.521l479.036 479.036c7.014 7.014 10.521 14.729 10.521 23.847-0.701 9.118-4.208 16.833-10.521 23.847z" />
<glyph unicode="&#xe906;" glyph-name="dropdown-up" d="M1026.104 232.679c0 9.118-3.507 16.833-10.521 23.847l-479.036 479.036c-7.014 7.014-14.729 10.521-23.847 10.521s-16.833-3.507-23.847-10.521l-478.334-479.036c-7.014-7.014-10.521-14.729-10.521-23.847s3.507-16.833 10.521-23.847l51.2-51.2c7.014-7.014 14.729-10.521 23.847-10.521s16.833 3.507 23.847 10.521l403.989 403.989 403.989-403.989c7.014-7.014 14.729-10.521 23.847-10.521s16.833 3.507 23.847 10.521l51.2 51.2c6.312 7.014 9.819 15.43 9.819 23.847z" />
<glyph unicode="&#xe907;" glyph-name="facebook" d="M968.329 960h-910.972c-32.053 0-57.357-25.305-57.357-57.357v-910.972c0-32.053 25.305-57.357 57.357-57.357h490.913v398.129h-133.272v155.203h133.272v114.715c0 131.585 80.975 204.125 199.064 204.125 57.357 0 104.593-5.061 119.776-6.748v-138.333h-82.662c-64.105 0-75.914-30.366-75.914-75.914v-97.845h151.829l-20.244-155.203h-133.272v-396.442h261.483c32.053 0 57.357 25.305 57.357 57.357v910.972c-1.687 30.366-26.992 55.671-57.357 55.671z" />
<glyph unicode="&#xe908;" glyph-name="google-plus" d="M662.961 960h-243.86c-108.734 0-183.687-24.28-251.249-80.231-52.784-46.449-85.509-112.957-85.509-178.408 0-101.344 77.064-209.023 220.635-209.023 13.724 0 29.559 1.056 42.227 3.167l-2.111-5.278c-5.278-13.724-10.557-26.392-10.557-47.505 0-40.115 19.002-64.396 38.004-87.621l2.111-3.167h-4.223c-59.118-4.223-168.907-11.612-250.194-61.229-95.010-55.951-102.4-138.293-102.4-162.573 0-95.010 88.676-191.076 286.087-191.076 230.136 0 349.427 126.68 349.427 252.305 0 92.899-53.839 138.293-111.901 186.854l-48.561 38.004c-14.779 12.668-33.781 27.447-33.781 57.006 0 28.503 19.002 46.449 34.837 63.34l2.111 2.111c52.784 41.171 111.901 88.676 111.901 190.021 0 102.4-63.34 154.128-93.955 179.464h81.287c1.056 0 2.111 0 3.167 1.056l69.674 44.338c2.111 1.056 3.167 3.167 2.111 6.334-1.056 1.056-3.167 2.111-5.278 2.111zM367.373-5.938c-140.404 0-234.359 65.452-234.359 162.573 0 63.34 38.004 109.79 114.012 137.237 60.173 20.058 139.348 21.113 139.348 21.113 13.724 0 20.058 0 30.614-1.056 98.177-69.674 144.627-106.623 144.627-176.297 1.056-88.676-73.897-143.571-194.243-143.571zM365.262 529.287c-117.179 0-166.796 154.128-166.796 237.526 0 42.227 9.501 73.897 29.559 99.233 21.113 26.392 58.062 44.338 92.899 44.338 107.678 0 167.852-144.627 167.852-244.915 0-15.835 0-64.396-32.726-97.122-22.169-23.225-58.062-39.060-90.788-39.060zM1003.942 826.986h-127.736v127.736c0 3.167-2.111 5.278-5.278 5.278h-54.895c-3.167 0-5.278-2.111-5.278-5.278v-127.736h-128.792c-3.167 0-5.278-2.111-5.278-5.278v-55.951c0-3.167 2.111-5.278 5.278-5.278h127.736v-128.792c0-3.167 2.111-5.278 5.278-5.278h55.951c3.167 0 5.278 2.111 5.278 5.278v128.792h128.792c3.167 0 5.278 2.111 5.278 5.278v55.951c-1.056 3.167-3.167 5.278-6.334 5.278z" />
<glyph unicode="&#xe909;" glyph-name="hamburger" d="M0 797.091h1024v-139.636h-1024v139.636zM0 517.818h1024v-139.636h-1024v139.636zM0 238.545h1024v-139.636h-1024v139.636z" />
<glyph unicode="&#xe90a;" glyph-name="home" d="M140.326 15.644c0 0 0-22.756 22.756-22.756 26.548 0 257.896 0 257.896 0v212.385c0 0-3.793 34.133 30.341 34.133h106.193c41.719 0 37.926-34.133 37.926-34.133v-212.385c0 0 219.97 0 254.104 0 26.548 0 26.548 30.341 26.548 30.341v390.637l-356.504 318.578-379.259-318.578c0 0 0-398.222 0-398.222zM0 406.281c0 0 30.341-60.681 102.4 0l417.185 352.711 390.637-352.711c79.644-56.889 109.985 0 109.985 0l-504.415 455.111-515.793-455.111zM898.844 713.481h-102.4v-125.156l102.4-83.437z" />
<glyph unicode="&#xe90b;" glyph-name="information" d="M512 960c-282.317 0-512-229.686-512-512.003s229.683-511.997 512-511.997 512 229.68 512 511.997c0 282.317-229.683 512.003-512 512.003zM512 29.091c-230.99 0-418.909 187.92-418.909 418.906s187.92 418.912 418.909 418.912 418.909-187.926 418.909-418.912c0-230.986-187.923-418.906-418.909-418.906zM511.994 742.788c-34.214 0-62.048-27.853-62.048-62.089 0-34.205 27.834-62.033 62.048-62.033s62.048 27.828 62.048 62.033c0 34.236-27.834 62.089-62.048 62.089zM512 525.576c-25.706 0-46.545-20.84-46.545-46.545v-279.273c0-25.706 20.84-46.545 46.545-46.545s46.545 20.84 46.545 46.545v279.273c0 25.706-20.84 46.545-46.545 46.545z" />
<glyph unicode="&#xe90c;" glyph-name="instagram" d="M720.738 448c0-119.633-96.982-216.615-216.615-216.615s-216.615 96.982-216.615 216.615c0 119.633 96.982 216.615 216.615 216.615s216.615-96.982 216.615-216.615zM768 448c0-145.723-118.154-267.815-267.815-267.815s-263.877 122.092-263.877 267.815c0 51.2 15.754 98.462 39.385 137.846 0 0 0 0 0 0l23.631 31.508h-299.323v-504.123c0-86.646 70.892-157.538 157.538-157.538h689.231c86.646 0 157.538 70.892 157.538 157.538v504.123h-295.385c35.446-47.262 59.077-106.338 59.077-169.354zM846.769 940.308h-689.231c-86.646 0-157.538-70.892-157.538-157.538v-118.154h350.523c43.323 31.508 94.523 47.262 153.6 47.262 55.138 0 110.277-19.692 153.6-47.262v0h350.523v118.154c-3.938 86.646-74.831 157.538-161.477 157.538zM897.969 723.692h-200.862v153.6h200.862v-153.6z" />
<glyph unicode="&#xe90d;" glyph-name="lender-home" d="M117.153 380.746h785.356v-85.912h-785.356v85.912zM117.080 294.761v387.471h93.288v-387.471h-93.288zM75.064 715.715l437.803 224.759 44.692-86.346-343.647-178.766zM951.539 715.715l-441.708 224.759-45.559-87.647 343.647-179.2zM811.317 294.761v387.471h93.288v-387.471h-93.288zM815.729 715.715h135.81v-93.288h-135.81v93.288zM75.064 715.715h135.81v-93.288h-135.81v93.288zM367.946 534.346h285.071v-79.837h-285.071v79.837zM367.946 673.193h285.071v-79.837h-285.071v79.837zM111.512 158.59v75.498h49.464v-8.678h-40.353v-22.997h37.749v-8.678h-37.749v-25.6h42.088v-8.678h-51.2zM226.929 166.834c4.339-3.037 8.244-5.641 11.715-6.942l-2.603-6.942c-4.773 1.736-9.98 5.207-14.753 9.112-5.207-3.037-10.847-4.773-16.922-4.773s-11.715 1.736-16.922 4.773c-5.207 3.471-9.112 7.81-11.715 13.885s-3.905 12.583-3.905 19.959c0 7.376 1.302 14.319 3.905 20.393s6.508 10.847 11.715 13.885c5.207 3.037 10.847 4.773 16.922 4.773 6.508 0 12.149-1.736 16.922-4.773 5.207-3.471 9.112-7.81 11.715-13.885s3.905-12.583 3.905-19.959c0-6.075-0.868-11.715-2.603-16.922-1.302-4.773-3.905-8.678-7.376-12.583zM206.969 179.417c5.207-1.736 9.546-3.905 13.017-7.376 5.207 5.207 7.81 13.451 7.81 24.298 0 6.075-0.868 11.281-2.603 16.054-1.736 4.339-4.773 8.244-8.244 10.414-3.471 2.603-7.81 3.905-12.149 3.905-6.942 0-12.149-2.603-16.922-7.81-4.339-5.207-6.508-12.583-6.508-22.563s2.169-17.356 6.508-22.563c4.339-5.207 9.98-7.81 16.922-7.81 3.037 0 6.075 0.868 9.112 2.169-3.037 2.169-5.641 3.471-9.112 4.339l2.169 6.942zM294.183 234.088h9.112v-43.39c0-7.376-0.868-13.451-2.169-18.224-1.736-4.339-4.339-8.244-8.244-10.847s-9.546-4.339-16.054-4.339c-6.508 0-11.715 1.302-15.62 3.471-3.905 2.603-6.942 6.075-8.678 10.414-1.736 4.773-2.603 10.847-2.603 19.092v43.39h9.112v-43.39c0-6.508 0.434-11.281 1.736-14.319s3.037-5.641 5.641-7.376c2.603-1.736 6.075-2.603 9.98-2.603 6.508 0 11.281 1.736 14.319 4.773 3.037 3.471 4.339 9.546 4.339 19.092v44.258zM310.671 158.59l26.034 75.498h9.546l27.769-75.498h-10.414l-7.81 22.997h-28.637l-7.376-22.997h-9.112zM330.631 189.831h22.997l-6.942 20.827c-2.169 6.508-3.905 11.715-4.773 15.62-0.868-4.773-2.169-9.546-3.471-14.319l-7.81-22.129zM381.397 158.59v75.498h9.112v-66.386h33.844v-8.678h-42.956zM484.664 158.59v75.498h9.112v-30.807h35.58v30.807h9.112v-75.498h-9.112v35.58h-35.58v-35.58h-9.112zM550.617 195.471c0 12.583 3.037 22.129 9.112 29.505 6.075 6.942 13.885 10.414 23.431 10.414 6.508 0 12.149-1.736 16.922-4.773 5.207-3.471 9.112-7.81 11.715-13.885s3.905-12.583 3.905-20.393c0-7.81-1.302-14.319-4.339-20.393-2.603-6.075-6.942-10.414-11.715-13.885-5.207-3.037-10.847-4.773-16.488-4.773-6.508 0-12.149 1.736-17.356 5.207s-9.112 8.244-11.715 13.885-3.471 12.583-3.471 19.092zM560.163 195.471c0-9.112 2.169-16.054 6.508-21.261s9.98-7.81 16.488-7.81c6.942 0 12.583 2.603 16.922 7.81s6.508 12.583 6.508 22.563c0 6.075-0.868 11.281-2.603 16.054s-4.773 8.244-8.244 10.414c-3.471 2.603-7.81 3.905-12.149 3.905-6.508 0-11.715-2.603-16.488-7.376-4.773-5.207-6.942-13.017-6.942-24.298zM672.542 234.088h9.112v-43.39c0-7.376-0.868-13.451-2.169-18.224-1.736-4.339-4.339-8.244-8.244-10.847s-9.546-4.339-16.054-4.339c-6.508 0-11.715 1.302-15.62 3.471-3.905 2.603-6.942 6.075-8.678 10.414-1.736 4.773-2.603 10.847-2.603 19.092v43.39h9.112v-43.39c0-6.508 0.434-11.281 1.736-14.319s3.037-5.641 5.641-7.376c2.603-1.736 6.075-2.603 9.98-2.603 6.508 0 11.281 1.736 14.319 4.773s4.339 9.546 4.339 19.092v44.258zM693.803 182.888l8.678 0.868c0.434-3.905 1.302-6.942 2.603-9.112 1.302-2.603 3.905-4.339 6.942-5.641s6.508-2.169 10.414-2.169c3.471 0 6.508 0.434 9.112 1.736s4.773 2.603 6.075 4.773c1.302 2.169 1.736 3.905 1.736 6.508 0 2.169-0.434 4.339-1.736 6.075s-3.471 3.037-6.075 4.339c-1.736 0.868-6.075 2.169-12.149 3.471-6.075 1.736-10.847 3.037-13.017 4.773-3.471 1.736-5.641 4.339-7.376 6.942s-2.603 6.075-2.603 9.546c0 3.905 0.868 7.376 3.037 10.847s4.773 5.641 8.678 7.376c3.905 1.736 7.81 2.603 12.583 2.603 5.207 0 9.546-0.868 13.451-2.603s6.942-4.339 9.112-7.81c2.169-3.471 3.037-7.376 3.471-11.715l-8.678-0.868c-0.434 4.773-2.169 8.244-4.773 10.847s-6.508 3.471-11.715 3.471c-5.641 0-9.546-1.302-12.149-3.471s-3.905-4.773-3.905-7.81c0-2.603 0.868-4.773 2.603-6.508s6.075-3.471 13.451-5.207c7.376-1.736 12.583-3.471 15.186-4.773 3.905-2.169 6.942-4.773 8.678-7.81s3.037-6.508 3.037-10.847c0-3.905-0.868-7.81-3.037-11.281s-5.207-6.508-9.112-8.244c-3.905-2.169-8.244-3.037-13.017-3.037-6.075 0-11.281 0.868-15.62 3.037s-7.376 4.773-9.98 9.112c-2.603 3.037-3.905 7.81-3.905 12.583zM761.925 158.59v75.498h9.112v-75.498h-9.112zM786.658 158.59v75.498h9.112l36.014-59.010v59.010h8.678v-75.498h-9.112l-36.014 59.010v-59.010h-8.678zM887.756 188.529v8.678h29.071v-27.769c-4.339-3.905-9.112-6.942-13.885-8.678-4.773-2.169-9.546-3.037-14.753-3.037-6.508 0-13.017 1.736-18.224 4.773-5.641 3.037-9.546 7.81-12.583 13.885-2.603 6.075-4.339 12.583-4.339 19.959s1.302 14.319 4.339 20.393c2.603 6.508 6.942 11.281 12.149 14.319s11.281 4.773 18.224 4.773c4.773 0 9.546-0.868 13.451-2.603s6.942-4.339 9.546-7.376c2.169-3.037 3.905-7.376 5.207-12.149l-8.244-2.603c-0.868 3.905-2.169 6.942-3.905 9.112s-3.905 3.905-6.508 5.207c-3.037 1.302-6.075 2.169-9.546 2.169-4.339 0-7.81-0.868-10.847-2.169s-5.641-3.037-7.376-5.641c-1.736-2.169-3.471-4.773-4.339-7.376-1.736-4.773-2.603-9.546-2.603-15.186 0-6.508 0.868-12.149 3.037-16.922 2.169-4.339 5.207-7.81 9.112-9.98s8.244-3.471 12.583-3.471c3.905 0 7.81 0.868 11.281 2.603 3.905 1.736 6.508 3.471 8.678 5.207v13.885h-19.525zM113.681 121.275h32.108v-122.359h63.783v-28.203h-95.458v150.563zM231.702 121.275h106.305v-27.336h-74.197v-32.542h72.895v-27.336h-72.895v-35.146h74.631v-27.769h-106.739v150.129zM395.281 71.81v-101.098h-32.108v150.563h32.976l69.858-97.627v97.627h32.108v-150.563h-30.807l-72.027 101.098zM527.62 121.275h59.444c47.295 0 79.837-29.939 79.837-75.498s-32.542-75.064-79.837-75.064h-59.444v150.563zM587.064-1.085c29.939 0 47.295 21.261 47.295 46.861 0 26.468-16.054 47.295-47.295 47.295h-27.336v-94.156h27.336zM689.898 121.275h106.305v-27.336h-74.631v-32.542h72.895v-27.336h-72.895v-35.146h74.631v-27.769h-106.305v150.129zM876.908 24.949h-23.431v-54.237h-32.108v150.563h70.292c31.241 0 50.332-20.393 50.332-48.597 0-26.468-16.488-40.786-32.976-44.692l33.844-57.275h-36.881l-29.071 54.237zM886.888 93.939h-33.41v-41.654h33.41c13.017 0 22.563 8.244 22.563 20.827s-9.546 20.827-22.563 20.827z" />
<glyph unicode="&#xe90e;" glyph-name="light-bulb" d="M344.436 420.073h339.782v-256h-339.782v256zM521.309 960c-186.182 0-335.127-148.945-335.127-335.127s148.945-335.127 335.127-335.127 335.127 148.945 335.127 335.127-153.6 335.127-335.127 335.127zM316.509 708.655h-37.236c0 0 27.927 181.527 214.109 181.527l18.618-13.964c0 0-186.182-23.273-195.491-167.564zM344.436 98.909h339.782v-32.582h-339.782v32.582zM353.745 52.364h316.509v-27.927h-316.509v27.927zM386.327 5.818h260.655v-27.927h-260.655v27.927zM418.909-40.727h195.491v-27.927h-195.491v27.927z" />
<glyph unicode="&#xe90f;" glyph-name="linkedin" d="M792.158 875.495h-728.929c-34.995 0-63.23-27.439-63.23-61.241v-732.707c0-33.802 28.235-61.241 63.23-61.241h728.929c34.796 0 63.23 27.439 63.23 61.241v732.707c-0.199 33.802-28.433 61.241-63.23 61.241zM259.281 159.689h-129.243v386.137h129.243v-386.137zM194.659 598.518h-0.795c-43.346 0-71.382 29.626-71.382 66.809 0 37.779 28.831 66.61 73.171 66.61 44.141 0 71.382-28.831 72.177-66.61 0-37.182-28.036-66.809-73.171-66.809zM725.151 159.689h-129.243v206.59c0 51.896-18.69 87.289-65.417 87.289-35.79 0-56.867-23.86-66.212-46.925-3.38-8.152-4.374-19.685-4.374-31.217v-215.736h-129.243c0 0 1.79 349.95 0 386.137h129.243v-54.68c17.1 26.246 47.72 63.826 116.318 63.826 85.101 0 148.729-55.077 148.729-173.782l0.199-221.502zM459.11 489.755c0.199 0.398 0.597 0.795 0.795 1.193v-1.193h-0.795zM916.629 156.508v-18.492h-10.141v48.317h14.117c6.562 0 11.334-1.193 14.515-3.579s4.772-5.965 4.772-10.936c0-2.784-0.795-5.369-2.386-7.556s-3.778-3.977-6.562-5.17c7.357-10.936 11.93-17.895 14.117-21.077h-11.334l-11.532 18.492h-5.567zM916.629 164.859h3.38c3.181 0 5.567 0.597 7.158 1.591s2.386 2.784 2.386 5.17c0 2.386-0.795 3.977-2.386 4.971s-3.977 1.392-7.357 1.392h-3.181v-13.123zM925.577 112.764c-27.24 0-49.311 22.071-49.311 49.311s22.071 49.311 49.311 49.311 49.311-22.071 49.311-49.311-22.071-49.311-49.311-49.311zM925.577 201.643c-21.673 0-39.369-17.696-39.369-39.369s17.696-39.369 39.369-39.369c21.673 0 39.369 17.696 39.369 39.369s-17.497 39.369-39.369 39.369z" />
<glyph unicode="&#xe910;" glyph-name="lock" d="M160 537.6h704v-595.2h-704v595.2zM780.8 473.6h-96v217.6c0 96-76.8 172.8-172.8 172.8s-172.8-76.8-172.8-172.8v-217.6h-96v217.6c0 147.2 121.6 268.8 268.8 268.8s268.8-121.6 268.8-268.8v-217.6z" />
<glyph unicode="&#xe911;" glyph-name="phone" d="M324.747 449.309c0 79.877 0 159.754 0 238.322 0 57.616 28.808 86.425 86.425 86.425 68.092 0 134.875 0 202.967 0 57.616 0 86.425-28.808 86.425-86.425 0-159.754 0-318.199 0-477.954 0-57.616-28.808-86.425-86.425-86.425-68.092 0-134.875 0-202.967 0-57.616 0-86.425 28.808-86.425 86.425 0 78.568 0 159.754 0 239.632zM658.66 445.381c0 66.783-1.309 133.565 0 199.038 0 20.951-6.547 28.808-27.499 27.499-78.568-1.309-157.136-1.309-235.703 0-23.57 0-28.808-9.166-28.808-30.118 0-129.637 0-259.274 0-388.91 0-23.57 6.547-30.118 30.118-30.118 77.258 1.309 154.517 1.309 231.775 0 26.189 0 31.427 9.166 30.118 32.737-2.619 62.854 0 127.018 0 189.872zM543.427 167.775c-3.928 14.404-10.476 24.88-27.499 23.57-15.714-1.309-23.57-10.476-23.57-26.189 0-14.404 10.476-20.951 23.57-20.951 15.714 2.619 24.88 10.476 27.499 23.57zM573.545 720.368c0 1.309 0 2.619 0 3.928-40.593 0-82.496 0-123.090 0 0-1.309 0-2.619 0-3.928 40.593 0 81.187 0 123.090 0zM512-64c-282.844 0-512 230.465-512 512s229.156 512 512 512 512-229.156 512-512-230.465-512-512-512zM512 920.716c-260.583 0-472.716-212.133-472.716-472.716s212.133-472.716 472.716-472.716 472.716 212.133 472.716 472.716-212.133 472.716-472.716 472.716z" />
<glyph unicode="&#xe912;" glyph-name="mouse-pointer" horiz-adv-x="989" d="M558.811-55.223c0 0-2.926 0-2.926 0-23.406 0-43.886 17.554-49.737 38.034l-99.474 339.383-362.789 73.143c-23.406 5.851-40.96 23.406-43.886 46.811s8.777 46.811 29.257 55.589l880.64 456.411c20.48 11.703 46.811 5.851 61.44-8.777 17.554-14.629 23.406-40.96 14.629-61.44l-377.417-904.046c-8.777-20.48-29.257-35.109-49.737-35.109v0z" />
<glyph unicode="&#xe913;" glyph-name="call-phone" d="M1001.042 150.739l-158.141 158.158c-31.499 31.372-83.661 30.419-116.257-2.189l-79.672-79.654c-5.034 2.774-10.244 5.672-15.721 8.746-50.312 27.877-119.173 66.086-191.634 138.601-72.676 72.667-110.921 141.634-138.883 191.978-2.951 5.334-5.778 10.476-8.57 15.36l79.76 79.713c32.646 32.655 33.546 84.803 2.121 116.266l-158.141 158.176c-31.425 31.419-83.611 30.466-116.257-2.189l-44.569-44.825 1.218-1.209c-14.945-19.069-27.433-41.063-36.726-64.78-8.567-22.576-13.9-44.119-16.339-65.707-20.881-173.112 58.226-331.323 272.912-546.013 296.762-296.741 535.913-274.324 546.23-273.23 22.47 2.686 44.005 8.055 65.889 16.554 23.511 9.185 45.49 21.655 64.548 36.568l0.974-0.865 45.152 44.213c32.578 32.649 33.517 84.814 2.106 116.328z" />
<glyph unicode="&#xe914;" glyph-name="close-envelope" d="M512 301.714l-126.683 110.885-362.203-310.491c13.166-12.215 30.939-19.822 50.542-19.822h876.69c19.529 0 37.23 7.607 50.322 19.822l-361.984 310.491-126.683-110.885zM1000.887 793.893c-13.166 12.288-30.866 19.822-50.542 19.822h-876.69c-19.529 0-37.23-7.607-50.395-19.968l488.741-418.889 488.887 419.035zM0 749.495v-607.671l353.499 300.398zM670.501 442.222l353.499-300.398v607.89z" />
<glyph unicode="&#xe915;" glyph-name="search" d="M468.114 170.057c-219.429 0-394.971 175.543-394.971 394.971s175.543 394.971 394.971 394.971 394.971-175.543 394.971-394.971-175.543-394.971-394.971-394.971zM468.114 813.714c-131.657 0-248.686-117.029-248.686-248.686s117.029-248.686 248.686-248.686 248.686 117.029 248.686 248.686-117.029 248.686-248.686 248.686zM625.402 268.295l111.835 94.296 245.169-290.772-111.835-94.296-245.169 290.772z" />
<glyph unicode="&#xe916;" glyph-name="warning-triangle" d="M1018.095 64.801l-467.93 810.468c-7.874 13.632-22.417 22.035-38.164 22.035s-30.29-8.403-38.164-22.035l-467.901-810.468c-7.903-13.632-7.903-30.437 0-44.070 7.874-13.632 22.417-22.035 38.164-22.035h935.832c15.748 0 30.29 8.403 38.194 22.035 7.844 13.632 7.815 30.437-0.029 44.070zM570.759 85.69h-117.519v98.98h117.519v-98.98zM570.759 252.449h-117.519v401.209h117.519v-401.209z" />
<glyph unicode="&#xe917;" glyph-name="dollar-symbol" horiz-adv-x="660" d="M589.008 431.35c-30.595 23.519-76.384 43.083-137.366 58.276l-47.87 10.407v201.886c1.457-1.457 2.706-2.081 4.163-2.081s2.081-0.624 2.081-2.081c40.169-19.356 61.815-52.657 64.52-99.902h160.26c-2.706 83.252-33.925 147.148-93.659 191.48-38.92 29.138-84.709 48.494-137.366 58.276v112.39h-147.772v-108.228c-69.307-8.325-124.254-30.595-164.423-66.602-52.657-47.246-79.089-106.771-79.089-178.992 0-77.633 27.057-135.285 81.171-172.748 29.138-20.813 83.252-40.169 162.341-58.276v-216.455c-29.138 8.325-51.408 21.437-66.602 39.545-16.65 19.356-27.057 45.789-31.22 79.089h-158.179c0-81.795 29.763-146.315 89.496-193.561 43.083-33.301 98.446-54.738 166.504-64.52v-83.252h147.772v81.171c72.221 9.782 129.665 32.676 172.748 68.683 55.571 48.494 83.252 109.685 83.252 183.154 0 70.764-23.519 124.878-70.764 162.341zM256 535.415c-23.519 6.868-40.169 13.112-49.951 18.732-26.433 13.945-39.545 35.382-39.545 64.52 0 31.844 13.112 56.195 39.545 72.846 13.945 8.325 30.595 15.193 49.951 20.813v-176.911zM428.748 162.862c-6.868-2.706-15.193-4.787-24.976-6.244v185.236c26.433-8.325 46.413-16.65 60.358-24.976 23.519-15.193 35.382-36.007 35.382-62.439 0-44.332-23.519-74.927-70.764-91.577z" />
<glyph unicode="&#xe918;" glyph-name="adjustable" horiz-adv-x="751" d="M46.126 626.047h92.252v-690.047h-92.252v690.047zM326.573 956.31h92.252v-599.64h-92.252v599.64zM612.555 459.993h92.252v-522.148h-92.252v522.148zM612.555 960h92.252v-278.602h-92.252v278.602zM46.126 956.31h92.252v-108.858h-92.252v108.858zM326.573 135.265h92.252v-199.265h-92.252v199.265zM184.505 736.75c0-50.95-41.303-92.252-92.252-92.252s-92.252 41.303-92.252 92.252c0 50.95 41.303 92.252 92.252 92.252s92.252-41.303 92.252-92.252zM464.951 244.123c0-50.95-41.303-92.252-92.252-92.252s-92.252 41.303-92.252 92.252c0 50.95 41.303 92.252 92.252 92.252s92.252-41.303 92.252-92.252zM750.933 570.695c0-50.95-41.303-92.252-92.252-92.252s-92.252 41.303-92.252 92.252c0 50.95 41.303 92.252 92.252 92.252s92.252-41.303 92.252-92.252z" />
<glyph unicode="&#xe919;" glyph-name="tribble-arrow" horiz-adv-x="676" d="M0 716.937l351.265 243.063 324.606-236.79v-175.632l-324.606 232.086-341.856-224.245zM0 418.989l351.265 243.063 324.606-236.79v-175.632l-324.606 232.086-341.856-224.245zM0 105.36l351.265 243.063 324.606-236.79v-175.632l-324.606 232.086-341.856-224.245z" />
<glyph unicode="&#xe91a;" glyph-name="unlock" horiz-adv-x="705" d="M143.228 400.257c1.646 0 3.293 0 4.939 0-21.402 36.219-34.572 77.376-34.572 123.473v133.35c0 130.058 107.010 237.068 237.068 237.068s237.068-107.010 237.068-237.068v-133.35c0-44.45-11.524-83.961-32.926-120.18 26.341 0 52.682-1.646 79.023-1.646 16.463 36.219 26.341 77.376 26.341 120.18v146.521c0 159.691-133.35 291.395-293.042 291.395h-29.633c-161.338 0-293.042-131.704-293.042-293.042v-146.521c0-52.682 14.817-103.717 39.511-146.521 13.17 16.463 32.926 26.341 59.267 26.341zM352.309 640.617c-194.264 0-352.309-158.045-352.309-352.309s158.045-352.309 352.309-352.309 352.309 158.045 352.309 352.309-158.045 352.309-352.309 352.309zM411.576 164.836h-120.18l9.878 128.412c-19.756 14.817-31.28 37.865-31.28 64.206 0 46.096 36.219 82.315 82.315 82.315s82.315-36.219 82.315-82.315c0-26.341-13.17-49.389-32.926-65.852l9.878-126.765z" />
<glyph unicode="&#xe91b;" glyph-name="elephant" horiz-adv-x="1204" d="M810.743 960h-417.321c-216.934 0-393.422-176.488-393.422-393.422v0-512.919h148.912v248.187c0 25.738 20.223 45.961 45.961 45.961h7.354c25.738 0 45.961-20.223 45.961-45.961v0-364.007h305.178v58.829c0 115.82 104.79 211.418 231.641 211.418s231.641-95.598 231.641-211.418v-58.829h185.68v628.74c1.838 216.934-174.65 393.422-391.583 393.422zM130.528 458.111c-16.546 0-29.415 12.869-29.415 29.415s12.869 29.415 29.415 29.415c16.546 0 29.415-12.869 29.415-29.415s-12.869-29.415-29.415-29.415zM619.548 465.465v0c0-73.537-60.668-134.205-136.043-134.205h-23.899c-75.375 0-136.043 60.668-136.043 136.043h23.899c0-60.668 49.637-110.305 110.305-110.305h23.899c60.668 0 110.305 49.637 110.305 110.305v0 238.995c0 36.768-18.384 71.698-47.799 90.083 0 0 0 1.838 1.838 1.838 5.515 7.354 9.192 14.707 11.031 22.061 36.768-23.899 62.506-66.183 62.506-113.982v0-240.833z" />
<glyph unicode="&#xe91c;" glyph-name="column" horiz-adv-x="933" d="M131.866 553.005h96.051v-491.65h-96.051v491.65zM319.084 553.005h94.423v-480.254h-94.423v480.254zM511.186 553.005h94.423v-480.254h-94.423v480.254zM698.404 551.377h94.423v-480.254h-94.423v480.254zM61.863 72.75h810.734v-68.375h-810.734v68.375zM61.863 613.24h810.734v-68.375h-810.734v68.375zM0 4.375h932.833v-68.375h-932.833v68.375zM107.447 601.844c0 198.614 159.542 358.156 358.156 358.156s358.156-159.542 358.156-358.156z" />
<glyph unicode="&#xe91d;" glyph-name="hammer" horiz-adv-x="1131" d="M1108.309 62.463l-681.496 658.662 33.372 33.372-68.501 66.744c0 0 1.756 1.756 1.756 1.756v0l22.834 22.834c35.129 35.129 82.552 57.962 131.732 59.719 5.269 0 10.539 3.513 12.295 8.782s0 10.539-5.269 12.295c-68.501 33.372-149.297 40.398-226.58 21.077-15.808-3.513-31.616-12.295-45.667-22.834v0h-5.269c-3.513-3.513-7.026-5.269-10.539-8.782l-19.321-19.321 1.756-1.756-140.515-147.54 12.295-43.911-42.154 12.295-31.616-33.372c-3.513-1.756-5.269-3.513-8.782-7.026l-22.834-22.834c-3.513-3.513-5.269-7.026-8.782-12.295l-1.756-1.756c-10.539-19.321-7.026-42.154 8.782-57.962l105.386-105.386c17.564-17.564 43.911-19.321 63.232-7.026l1.756-1.756 7.026 7.026c0 0 0 0 0 0l22.834 22.834c1.756 1.756 3.513 3.513 5.269 5.269l42.154 43.911-12.295 40.398 43.911-7.026 31.616 33.372 681.496-658.662c28.103-28.103 73.77-26.346 101.873 1.756l3.513 5.269c26.346 29.859 24.59 75.527-3.513 101.873z" />
<glyph unicode="&#xe91e;" glyph-name="substract" d="M0 496.762h1024v-97.524h-1024v97.524z" />
<glyph unicode="&#xe91f;" glyph-name="add" d="M1024 496.762h-463.238v463.238h-97.524v-463.238h-463.238v-97.524h463.238v-463.238h97.524v463.238h463.238z" />
<glyph unicode="&#xe920;" glyph-name="cancel" d="M581.458 448l428.205 428.205c19.181 19.181 19.181 50.277 0 69.458s-50.277 19.181-69.458 0l-428.205-428.205-428.205 428.14c-19.181 19.181-50.277 19.181-69.458 0s-19.181-50.277 0-69.458l428.205-428.205-428.14-428.14c-19.181-19.181-19.181-50.277 0-69.458 9.623-9.558 22.127-14.402 34.696-14.402s25.138 4.779 34.696 14.402l428.205 428.205 428.205-428.205c9.623-9.558 22.127-14.402 34.696-14.402s25.138 4.779 34.696 14.402c19.181 19.181 19.181 50.277 0 69.458l-428.14 428.205z" />
<glyph unicode="&#xe921;" glyph-name="coins" horiz-adv-x="1165" d="M895.393 604.916c-148.828 0-269.346 48.531-269.346 107.577v-107.577c0-59.855 120.518-107.577 269.346-107.577s269.346 47.722 269.346 107.577v107.577c0-59.046-120.518-107.577-269.346-107.577zM895.393 464.986c-148.828 0-269.346 48.531-269.346 107.577v-107.577c0-59.855 120.518-107.577 269.346-107.577s269.346 48.531 269.346 107.577v107.577c0-59.855-120.518-107.577-269.346-107.577zM895.393 324.246c-148.828 0-269.346 48.531-269.346 107.577v-107.577c0-59.855 120.518-107.577 269.346-107.577s269.346 48.531 269.346 107.577v108.385c0-59.855-120.518-108.385-269.346-108.385zM895.393 184.316c-148.828 0-269.346 48.531-269.346 107.577v-107.577c0-59.855 120.518-107.577 269.346-107.577s269.346 48.531 269.346 107.577v107.577c0-59.046-120.518-107.577-269.346-107.577zM895.393 44.385c-148.828 0-269.346 48.531-269.346 107.577v-107.577c0-59.855 120.518-107.577 269.346-107.577s269.346 48.531 269.346 107.577v107.577c0-59.855-120.518-107.577-269.346-107.577zM895.393 960c-148.828 0-269.346-48.531-269.346-107.577v-107.577c0-59.855 120.518-108.385 269.346-108.385s269.346 48.531 269.346 107.577v108.385c0 59.046-120.518 107.577-269.346 107.577zM895.393 771.539c-148.019 0-242.654 47.722-242.654 80.885s94.635 80.885 242.654 80.885c148.019 0 242.654-47.722 242.654-80.885s-94.635-80.885-242.654-80.885zM915.615 864.556c-30.736 4.853-43.678 8.088-43.678 13.75 0 4.044 8.088 8.897 31.545 8.897 26.692 0 42.869-3.235 52.575-5.662l10.515 17.795c-12.133 2.427-28.31 4.853-52.575 4.853v13.75h-35.589v-14.559c-38.825-3.235-62.281-13.75-62.281-27.501 0-15.368 26.692-22.648 66.325-28.31 26.692-4.044 38.825-7.28 38.825-13.75s-14.559-9.706-35.589-9.706c-23.457 0-45.295 3.235-60.664 7.28l-11.324-18.603c13.75-3.235 38.016-6.471 62.281-6.471v-16.177h35.589v16.177c42.060 3.235 65.517 15.368 65.517 29.118s-17.795 22.648-61.472 29.118zM269.346 324.246c-148.828 0-269.346 48.531-269.346 108.385v-107.577c0-59.855 120.518-107.577 269.346-107.577s269.346 48.531 269.346 107.577v107.577c0-59.855-120.518-108.385-269.346-108.385zM269.346 184.316c-148.828 0-269.346 48.531-269.346 107.577v-107.577c0-59.855 120.518-107.577 269.346-107.577s269.346 48.531 269.346 107.577v107.577c0-59.046-120.518-107.577-269.346-107.577zM269.346 44.385c-148.828 0-269.346 48.531-269.346 107.577v-107.577c0-59.855 120.518-107.577 269.346-107.577s269.346 48.531 269.346 107.577v107.577c0-59.855-120.518-107.577-269.346-107.577zM269.346 679.33c-148.828 0-269.346-47.722-269.346-107.577v-107.577c0-59.855 120.518-107.577 269.346-107.577s269.346 48.531 269.346 107.577v107.577c0 59.855-120.518 107.577-269.346 107.577zM269.346 490.869c-148.019 0-242.654 47.722-242.654 80.885s94.635 80.885 242.654 80.885c148.019 0 242.654-47.722 242.654-80.885s-94.635-80.885-242.654-80.885zM289.567 583.886c-30.736 4.853-43.678 8.088-43.678 13.75 0 4.044 7.28 8.897 31.545 8.897 26.692 0 42.869-3.235 52.575-5.662l10.515 17.795c-12.133 2.427-28.31 4.853-53.384 4.853v13.75h-35.589v-14.559c-38.825-3.235-62.281-13.75-62.281-27.501 0-15.368 26.692-22.648 66.325-28.31 26.692-4.044 38.825-7.28 38.825-13.75s-14.559-9.706-35.589-9.706c-23.457 0-45.295 3.235-60.664 7.28l-10.515-19.412c13.75-3.235 38.016-6.471 62.281-6.471v-14.559h35.589v16.177c42.060 3.235 65.517 15.368 65.517 29.118s-17.795 21.839-61.472 28.31z" />
<glyph unicode="&#xe922;" glyph-name="tick-thin" horiz-adv-x="1345" d="M427.94 149.97l-320.955 320.955-106.985-106.985 427.94-427.94 917.015 917.015-106.985 106.985z" />
<glyph unicode="&#xe923;" glyph-name="tick-bold" horiz-adv-x="1286" d="M1279.459 773.818l-831.323-831.323c-4.33-4.33-12.989-8.66-19.484-8.66s-12.989 4.33-17.319 8.66l-402.672 404.837c-6.495 4.33-8.66 10.825-8.66 17.319s2.165 12.989 8.66 19.484l140.719 140.719c10.825 10.825 28.144 10.825 36.803 0l242.469-242.469 671.121 671.121c10.825 10.825 28.144 10.825 36.803 0l140.719-140.719c4.33-4.33 8.66-10.825 8.66-19.484s-2.165-15.154-6.495-19.484z" />
<glyph unicode="&#xe924;" glyph-name="home-line" horiz-adv-x="1159" d="M1149.836 464.645l-148.473 129.165v229.701c13.982 1.997 24.635 14.648 24.635 28.629v3.995c0 15.979-13.316 29.295-29.295 29.295h-215.053c-15.979 0-29.295-13.316-29.295-29.295v-3.995c0-15.313 11.984-27.964 27.298-29.295v-36.619l-199.74 173.774v-0.666l-0.666 0.666-569.925-495.355c-11.984-9.987-12.65-28.629-1.332-41.28l1.332-1.332c10.653-12.65 29.295-14.648 40.614-3.995l97.873 85.222v-505.342h-47.938c-16.645 0-29.961-13.316-29.961-29.961v-1.997c0-16.645 13.316-29.961 29.961-29.961h949.43c16.645 0 29.961 13.316 29.961 29.961v1.997c0 16.645-13.316 29.961-29.961 29.961h-47.938v513.332l107.194-93.212c11.984-10.653 30.627-8.655 41.28 3.995l1.332 1.332c11.319 12.65 10.653 31.293-1.332 41.28zM841.571 822.845h97.207v-174.44l-97.207 84.557v89.883zM938.778-2.081h-729.717v558.606l370.185 321.581 359.532-312.26v-567.927z" />
<glyph unicode="&#xe925;" glyph-name="up-arrow" horiz-adv-x="2054" d="M2054.024-64l-1026.008 1024-1028.016-1024z" />
<glyph unicode="&#xe926;" glyph-name="down-arrow" horiz-adv-x="2061" d="M0 960l1030.693-1024 1030.693 1024z" />
</font>
</defs>
</svg>
